<?xml version="1.0" encoding="UTF-8" standalone="no"?>
<svg
   xmlns:dc="http://purl.org/dc/elements/1.1/"
   xmlns:cc="http://creativecommons.org/ns#"
   xmlns:rdf="http://www.w3.org/1999/02/22-rdf-syntax-ns#"
   xmlns:svg="http://www.w3.org/2000/svg"
   xmlns="http://www.w3.org/2000/svg"
   version="1.0"
   id="Layer_1"
   x="0px"
   y="0px"
   width="1024"
   height="1024"
   viewBox="0 0 173.5 173.1"
   enable-background="new 0 0 170.064 70.992"
   xml:space="preserve"><metadata
     id="metadata2274"><rdf:RDF><cc:Work
         rdf:about=""><dc:format>image/svg+xml</dc:format><dc:type
           rdf:resource="http://purl.org/dc/dcmitype/StillImage" /><dc:title></dc:title></cc:Work></rdf:RDF></metadata><defs
     id="defs2272"><clipPath
       id="mymask"><circle
         id="circle3"
         cx="61"
         cy="36"
         r="30" /></clipPath></defs><g
     id="g2237"
     clip-path="url(#mymask)"
     transform="matrix(2.891,0,0,2.891,-89.62,-17.41)"><path
       clip-path="url(#mymask)"
       d="m 75.46,44.78 v -0.1 c -0.65,0.94 -1.37,1.8 -2.24,2.59 c -0.86,0.8 -1.72,1.52 -2.66,2.16 v 0 v 0 c -0.65,0.36 -1.37,0.72 -2.02,1.08 l -0.1,-0.1 v 0 v 0 c -1.94,1.01 -4.1,1.51 -6.26,1.66 c -1.23,0.14 -2.45,0.1 -3.67,-0.1 v 0 c -0.1,0 -0.22,0 -0.29,-0.1 c -1.8,-0.21 -2.23,-0.14 -3.39,1.16 l -3.74,3.74 c 4.82,2.09 10.15,2.52 15.26,1.44 c 0.1,-0.1 0.15,-0.1 0.22,-0.1 v 0 c 3.02,-0.72 5.98,-1.95 8.57,-3.82 l 11.09,10.23 c 4.96,4.53 9.64,6.33 15.47,6.33 h 68.4 V 64.3 h -68.4 c -2.95,0 -6.83,-1.3 -9.71,-4.04 z M 53.42,20.52 v 0 v 0 c 2.6,-1.3 5.48,-1.8 8.28,-1.73 h 0.15 v 0 h 0.1 c 0.5,0.1 1.01,0.1 1.51,0.15 v 0 c 0.1,0 0.15,0.1 0.22,0.1 c 1.8,0.21 2.23,0.21 3.45,-1.08 l 3.68,-3.82 C 70.2,13.9 69.7,13.68 69.12,13.46 v 0 c -1.94,-0.64 -3.96,-1.08 -5.98,-1.22 v -0.1 H 63 c -4.1,-0.29 -8.28,0.36 -12.1,2.09 c -1.44,0.57 -2.8,1.36 -4.1,2.3 L 35.64,6.336 C 30.67,1.8 26.06,0 20.23,0 H 0 v 6.696 h 20.16 c 2.95,0 6.84,1.296 9.72,4.034 l 16.63,15.55 h 0.1 c 0.58,-0.94 1.3,-1.8 2.16,-2.59 c 0.87,-0.79 1.73,-1.51 2.74,-2.16 v 0 v 0 c 0.58,-0.36 1.22,-0.72 1.94,-1.01 v 0 z M 83.3,44.57 l -3.31,-2.81 c -1.65,-1.44 -1.94,-2.02 -1.87,-3.89 v -0.1 c 0,-0.14 0.1,-0.36 0.1,-0.58 c 0,-0.14 0,-0.28 0.1,-0.43 V 36.47 C 78.55,31.9 76.9,27.22 73.22,23.69 C 72.36,22.9 71.5,22.18 70.56,21.53 L 86.26,6.336 C 91.08,1.656 95.9,0 101.7,0 h 68.4 v 6.696 h -68.4 c -2.92,0 -6.8,1.296 -9.68,4.034 C 90.65,12.02 80.71,21.96 80.71,21.96 c 4.25,5.76 5.4,12.89 3.75,19.44 c -0.1,0.1 -0.1,0.14 -0.15,0.22 v 0 c -0.21,1 -0.57,2.01 -1.01,2.95 z M 38.52,26.42 l 3.24,2.88 c 1.66,1.37 2.02,1.95 1.87,3.89 v 0 v 0.1 c 0,0.29 -0.1,0.65 -0.1,1.01 c -0.1,0.94 -0.1,1.8 0,2.74 c 0.36,3.74 2.02,7.41 4.97,10.29 c 0.86,0.8 1.73,1.52 2.73,2.16 l -15.84,15.2 c -4.82,4.68 -9.57,6.33 -15.4,6.33 H 0 V 64.3 h 20.02 c 2.88,0 6.84,-1.3 9.64,-4.04 C 31.03,58.97 41.04,49.03 41.04,49.03 C 36.43,42.7 35.35,34.78 37.94,27.65 l 0.6,-1.2 z"
       id="path2269"
       style="fill:#265581" /></g><text
     id="text15"
     y="111.2"
     x="63.3"
     style="font-style:normal;font-weight:normal;font-size:94.0146px;line-height:125%;font-family:sans-serif;letter-spacing:0px;word-spacing:0px;fill:#f8c034;fill-opacity:1;stroke:none;stroke-width:0.4897px;stroke-linecap:butt;stroke-linejoin:miter;stroke-opacity:1"
     xml:space="preserve"><tspan
       style="font-style:normal;font-variant:normal;font-weight:normal;font-stretch:normal;font-size:94.0146px;font-family:'Fira Sans';-inkscape-font-specification:'Fira Sans';fill:#f8c034;fill-opacity:1;stroke-width:0.4897px"
       y="111.2"
       x="63.3"
       id="tspan13">v</tspan></text>
</svg>